<svg width="512" height="512" viewBox="0 0 512 512" fill="none" xmlns="http://www.w3.org/2000/svg">
<path d="M0 407.583V104H131.632C154.756 104 174.175 107.113 189.888 113.339C205.699 119.565 217.607 128.36 225.612 139.724C233.715 151.089 237.767 164.479 237.767 179.896C237.767 191.063 235.297 201.241 230.356 210.432C225.513 219.622 218.694 227.331 209.899 233.556C201.104 239.683 190.826 243.933 179.067 246.305V249.269C192.111 249.763 203.97 253.074 214.643 259.201C225.316 265.229 233.814 273.58 240.139 284.252C246.464 294.826 249.626 307.278 249.626 321.607C249.626 338.21 245.278 352.984 236.581 365.929C227.984 378.875 215.73 389.054 199.819 396.466C183.909 403.877 164.935 407.583 142.897 407.583H0ZM82.4181 341.767H120.959C134.794 341.767 145.17 339.198 152.088 334.059C159.006 328.821 162.464 321.113 162.464 310.935C162.464 303.819 160.834 297.791 157.573 292.85C154.312 287.909 149.667 284.154 143.639 281.584C137.709 279.015 130.545 277.73 122.145 277.73H82.4181V341.767ZM82.4181 226.738H116.215C123.429 226.738 129.804 225.601 135.338 223.328C140.872 221.055 145.17 217.794 148.234 213.545C151.396 209.197 152.977 203.91 152.977 197.684C152.977 188.296 149.617 181.131 142.897 176.19C136.178 171.15 127.679 168.63 117.401 168.63H82.4181V226.738Z" fill="black"/>
<path d="M512 104.296L512 407.88H380.961C358.43 407.88 338.714 403.778 321.816 395.576C304.917 387.374 291.774 375.564 282.386 360.148C272.997 344.732 268.303 326.252 268.303 304.709C268.303 282.968 273.146 264.636 282.83 249.714C292.416 234.792 305.905 223.526 323.298 215.917C340.592 208.307 360.801 204.503 383.926 204.503L462.193 204.503V268.54L400.528 268.54C390.843 268.54 382.592 269.725 375.773 272.097C368.855 274.568 363.568 278.471 359.912 283.808C356.157 289.144 354.279 296.111 354.279 304.709C354.279 313.405 356.157 320.471 359.912 325.906C363.568 331.44 368.855 335.492 375.773 338.061C382.592 340.73 390.843 342.064 400.528 342.064H429.582V104.296L512 104.296ZM334.119 243.636L258.223 104.296L347.757 104.296L421.874 243.636H334.119Z" fill="black"/>
</svg>
