<svg width="512" height="512" viewBox="0 0 512 512" fill="none" xmlns="http://www.w3.org/2000/svg">
<path d="M202.393 107.634C70.4871 119.359 16.5036 198.016 6 235.879C50.7013 208.765 147.139 161.424 175.279 188.978C210.454 223.421 202.393 312.094 294.726 257.132C387.06 202.169 367.275 92.9769 202.393 107.634Z" fill="black"/>
<path d="M203.633 404.011C327.844 358.093 359.303 268.028 359.507 228.736C323.484 266.628 242.842 337.61 208.459 318.402C165.482 294.393 150 206.711 75.3171 283.971C0.634371 361.231 48.3702 461.409 203.633 404.011Z" fill="black"/>
<path d="M489.31 246.515C443.845 122.134 353.898 90.3464 314.608 90C352.367 126.162 423.053 207.064 403.722 241.377C379.557 284.269 291.823 299.433 368.808 374.399C445.794 449.364 546.141 401.991 489.31 246.515Z" fill="black"/>
</svg>
