<svg width="512" height="512" viewBox="0 0 512 512" fill="none" xmlns="http://www.w3.org/2000/svg">
<path d="M116.573 41V470.392H0V41H116.573Z" fill="black"/>
<path d="M512 41.4193L512 470.812H326.657C294.788 470.812 266.903 465.011 243.001 453.409C219.099 441.808 200.509 425.105 187.23 403.3C173.951 381.495 167.312 355.356 167.312 324.885C167.312 294.135 174.161 268.206 187.859 247.1C201.417 225.994 220.497 210.059 245.097 199.296C269.558 188.534 298.143 183.152 330.85 183.152L441.553 183.152V273.727L354.332 273.727C340.634 273.727 328.963 275.405 319.319 278.759C309.534 282.254 302.056 287.775 296.885 295.323C291.573 302.871 288.917 312.725 288.917 324.885C288.917 337.186 291.573 347.18 296.885 354.867C302.056 362.695 309.534 368.426 319.319 372.06C328.963 375.834 340.634 377.721 354.332 377.721H395.427V41.4193L512 41.4193ZM260.403 238.504L153.055 41.4193L279.692 41.4193L384.524 238.504H260.403Z" fill="black"/>
</svg>
