<svg width="512" height="512" viewBox="0 0 512 512" fill="none" xmlns="http://www.w3.org/2000/svg">
<path d="M0 407.583V104H131.039C153.57 104 173.285 108.447 190.184 117.341C207.083 126.235 220.226 138.736 229.614 154.844C239.002 170.952 243.697 189.778 243.697 211.321C243.697 233.062 238.854 251.888 229.17 267.798C219.584 283.709 206.095 295.963 188.702 304.56C171.408 313.158 151.199 317.457 128.074 317.457H49.8066V253.42H111.472C121.157 253.42 129.408 251.74 136.227 248.38C143.145 244.921 148.432 240.029 152.088 233.705C155.843 227.38 157.721 219.919 157.721 211.321C157.721 202.625 155.843 195.213 152.088 189.086C148.432 182.86 143.145 178.117 136.227 174.856C129.408 171.496 121.157 169.816 111.472 169.816H82.4181V407.583H0Z" fill="black"/>
<path d="M512 104.296L512 407.88H380.961C358.43 407.88 338.714 403.778 321.816 395.576C304.917 387.374 291.774 375.564 282.386 360.148C272.997 344.732 268.303 326.252 268.303 304.709C268.303 282.968 273.146 264.636 282.83 249.714C292.416 234.792 305.905 223.526 323.298 215.917C340.592 208.307 360.801 204.503 383.926 204.503L462.193 204.503V268.54L400.528 268.54C390.843 268.54 382.592 269.725 375.773 272.097C368.855 274.568 363.568 278.471 359.912 283.808C356.157 289.144 354.279 296.111 354.279 304.709C354.279 313.405 356.157 320.471 359.912 325.906C363.568 331.44 368.855 335.492 375.773 338.061C382.592 340.73 390.843 342.064 400.528 342.064H429.582V104.296L512 104.296ZM334.119 243.636L258.223 104.296L347.757 104.296L421.874 243.636H334.119Z" fill="black"/>
</svg>
