<svg width="512" height="512" viewBox="0 0 512 512" fill="none" xmlns="http://www.w3.org/2000/svg">
<path d="M0 402.59V103H129.662C151.957 103 171.465 107.047 188.186 115.142C204.908 123.236 217.913 134.89 227.202 150.103C236.492 165.317 241.137 183.554 241.137 204.814C241.137 226.269 236.345 244.359 226.762 259.085C217.277 273.811 203.93 284.929 186.72 292.438C169.607 299.947 149.61 303.702 126.729 303.702H49.2834V240.507H110.301C119.884 240.507 128.049 239.337 134.796 236.996C141.641 234.558 146.872 230.706 150.49 225.44C154.206 220.174 156.064 213.298 156.064 204.814C156.064 196.232 154.206 189.259 150.49 183.895C146.872 178.434 141.641 174.435 134.796 171.9C128.049 169.267 119.884 167.95 110.301 167.95H81.5523V402.59H0ZM176.012 265.083L251.111 402.59H162.518L89.1795 265.083H176.012Z" fill="black"/>
<path d="M512 109.41V409H382.338C360.043 409 340.535 404.953 323.814 396.858C307.092 388.764 294.087 377.11 284.797 361.896C275.508 346.683 270.863 328.446 270.863 307.186C270.863 285.731 275.655 267.641 285.238 252.915C294.723 238.189 308.07 227.071 325.28 219.562C342.393 212.053 362.39 208.298 385.271 208.298H462.717V271.493H401.699C392.116 271.493 383.951 272.663 377.204 275.004C370.359 277.442 365.128 281.294 361.51 286.56C357.794 291.826 355.936 298.702 355.936 307.186C355.936 315.768 357.794 322.741 361.51 328.105C365.128 333.566 370.359 337.565 377.204 340.1C383.951 342.733 392.116 344.05 401.699 344.05H430.448V109.41H512ZM335.988 246.917L260.889 109.41H349.482L422.82 246.917H335.988Z" fill="black"/>
</svg>
